<?xml version="1.0" encoding="UTF-8" standalone="no"?>
<svg
   xmlns:dc="http://purl.org/dc/elements/1.1/"
   xmlns:cc="http://creativecommons.org/ns#"
   xmlns:rdf="http://www.w3.org/1999/02/22-rdf-syntax-ns#"
   xmlns:svg="http://www.w3.org/2000/svg"
   xmlns="http://www.w3.org/2000/svg"
   viewBox="0 0 6245.3999 6256.25"
   height="6256.25"
   width="6245.3999"
   xml:space="preserve"
   version="1.1"
   id="svg2"><metadata
     id="metadata8"><rdf:RDF><cc:Work
         rdf:about=""><dc:format>image/svg+xml</dc:format><dc:type
           rdf:resource="http://purl.org/dc/dcmitype/StillImage" /></cc:Work></rdf:RDF></metadata><defs
     id="defs6"><clipPath
       id="clipPath18"
       clipPathUnits="userSpaceOnUse"><path
         id="path20"
         d="M 0,14670 0,0 l 14644.6,0 0,14670 L 0,14670 Z" /></clipPath></defs><g
     transform="matrix(1.25,0,0,-1.25,0,6256.25)"
     id="g10"><g
       transform="scale(0.341172,0.341172)"
       id="g12"><g
         id="g14"><g
           clip-path="url(#clipPath18)"
           id="g16"><path
             id="path22"
             style="fill:#86bdda;fill-opacity:1;fill-rule:nonzero;stroke:none"
             d="m 0,0 14644.6,0 0,14670 L 0,14670 0,0 Z" /><path
             id="path24"
             style="fill:#ffffff;fill-opacity:1;fill-rule:nonzero;stroke:none"
             d="m 1603.6,7176.72 c 0,0 0.5,-36.81 1.49,-108.15 0.39,-17.82 0.16,-37.78 1.17,-59.89 0.83,-22.1 1.8,-46.3 2.84,-72.63 1.19,-26.26 1.68,-54.66 3.76,-85.09 1.91,-30.33 4.01,-62.78 6.23,-97.22 10.13,-137.64 26.05,-307.26 56.99,-505.05 30.87,-197.7 76.8,-423.51 145.36,-671.86 4.24,-15.54 8.35,-31.25 12.86,-46.9 4.66,-15.62 9.39,-31.36 14.11,-47.19 9.52,-31.69 19.14,-63.72 28.9,-96.22 21.24,-64.37 41.74,-130.82 66.16,-197.68 23.02,-67.32 49.53,-135.18 76.02,-204.7 28.15,-68.91 56.15,-139.64 88.01,-210.39 124.25,-284.5 282.3,-582.12 479.36,-881.91 196.98,-299.67 433.87,-601.16 714.52,-889.52 280.59,-288.12 604.33,-564.02 971.59,-808.88 183.6,-122.44 377.67,-237.39 581.55,-342.82 203.77,-105.69 418.15,-200.05 640.74,-283.87 222.49,-84.04 454.22,-154.82 692.93,-212.42 59.47,-15.12 119.91,-27.46 180.29,-40.62 30.19,-6.95 60.73,-12.17 91.19,-18.12 30.51,-5.66 60.99,-11.87 91.65,-17.23 30.78,-5.04 61.55,-10.11 92.39,-15.18 l 46.34,-7.66 46.57,-6.47 c 31.07,-4.28 62.2,-8.59 93.39,-12.96 31.21,-4.02 62.58,-7.21 93.97,-10.88 62.69,-7.82 125.91,-12.62 189.25,-18.28 31.69,-3.17 63.52,-4.55 95.35,-6.68 31.87,-1.88 63.76,-4.23 95.67,-5.72 31.98,-1.2 64.05,-2.35 96.14,-3.55 l 48.16,-1.76 48.27,-0.55 c 32.25,-0.38 64.49,-0.79 96.79,-1.12 32.09,-0.05 64.69,0.74 97.14,1.06 64.98,0.18 129.81,3.54 194.91,5.95 32.54,0.82 65.16,3.81 97.78,5.65 32.62,2.29 65.33,3.73 97.99,6.75 65.3,6.12 130.93,10.93 196.38,19.22 32.74,3.96 65.6,7.33 98.39,11.67 32.75,4.6 65.54,9.23 98.37,13.89 32.89,4.31 65.6,9.79 98.43,15.36 32.77,5.54 65.68,10.7 98.45,16.62 65.39,12.99 131.34,24.33 196.62,39.45 131.19,27.44 261.54,61.82 391.79,98.49 64.84,19.4 130.03,38.25 194.45,60 64.87,20.37 128.88,43.76 193.3,66.44 32.13,11.49 63.93,24.15 95.94,36.17 l 48.01,18.32 c 15.97,6.19 31.74,12.93 47.63,19.35 31.74,13.01 63.49,26.06 95.32,39.1 31.48,13.8 62.99,27.64 94.49,41.44 503.4,224.08 983.9,522.44 1417.9,887.44 434.1,364.72 821.4,795.94 1141,1277.92 319.9,481.69 571.7,1014.21 740.4,1574.36 169.1,560.07 254.4,1147.34 253.9,1734.52 -0.7,587.16 -87.2,1174.1 -257.4,1733.44 -169.7,559.54 -422.4,1090.94 -742.9,1571.44 -320.2,480.8 -707.9,910.5 -1141.9,1273.7 -433.9,363.5 -914.1,660.2 -1416.7,882.7 -31.52,13.8 -62.97,27.5 -94.42,41.2 -31.74,12.9 -63.46,25.9 -95.14,38.8 -15.86,6.4 -31.6,13 -47.58,19.2 l -47.89,18.1 c -31.98,12 -63.69,24.6 -95.79,36 -64.3,22.4 -128.2,45.7 -192.95,65.8 -64.31,21.6 -129.35,40.2 -194.03,59.5 -130,36.3 -260.05,70.3 -390.92,97.4 -65.16,14.9 -130.93,26.1 -196.15,38.9 -32.74,5.8 -65.51,10.9 -98.22,16.4 -32.71,5.4 -65.36,10.9 -98.16,15.1 -32.74,4.6 -65.45,9.1 -98.1,13.7 -32.68,4.2 -65.48,7.5 -98.13,11.3 -65.28,8.2 -130.7,12.9 -195.83,18.8 -32.53,3 -65.19,4.3 -97.72,6.6 -32.54,1.7 -64.98,4.6 -97.49,5.4 -64.95,2.3 -129.7,5.5 -194.36,5.5 -32.15,0.3 -64.89,1 -96.46,0.9 -32.36,-0.4 -64.66,-0.9 -96.93,-1.3 l -48.33,-0.6 -47.87,-1.9 c -31.95,-1.3 -63.81,-2.5 -95.61,-3.8 -31.83,-1.5 -63.63,-3.9 -95.38,-5.9 -31.68,-2.1 -63.43,-3.6 -94.93,-6.8 -63.14,-5.7 -126.16,-10.7 -188.62,-18.6 -31.27,-3.7 -62.52,-7 -93.65,-11.1 -31.07,-4.3 -62.08,-8.7 -93,-13.1 l -46.43,-6.5 -46.1,-7.7 c -30.72,-5.2 -61.41,-10.2 -92.04,-15.4 -30.54,-5.4 -60.91,-11.6 -91.3,-17.3 -30.34,-6 -60.76,-11.2 -90.77,-18.2 -60.18,-13.3 -120.36,-25.6 -179.56,-40.9 -237.71,-57.8 -468.39,-128.8 -689.86,-213 -221.5,-83.9 -434.82,-178.3 -637.51,-284 -202.8,-105.4 -395.81,-220.3 -578.36,-342.5 -365.12,-244.6 -686.8,-519.9 -965.46,-807.1 -278.69,-287.6 -513.75,-588 -709.12,-886.6 -195.4,-298.6 -352,-594.88 -474.93,-878.02 -31.58,-70.44 -59.24,-140.84 -87.1,-209.4 -26.18,-69.17 -52.42,-136.67 -75.16,-203.68 -24.18,-66.5 -44.38,-132.6 -65.37,-196.67 -9.65,-32.28 -19.17,-64.19 -28.56,-95.67 -4.67,-15.8 -9.31,-31.42 -13.91,-46.99 -4.45,-15.62 -8.49,-31.19 -12.71,-46.63 -67.64,-247.03 -112.81,-471.55 -143.09,-668.08 -30.34,-196.64 -45.81,-365.3 -55.61,-502.06 -2.15,-34.27 -4.14,-66.48 -6.04,-96.7 -1.94,-30.19 -2.36,-58.38 -3.54,-84.56 -0.95,-26.12 -1.86,-50.18 -2.65,-72.11 -0.96,-21.95 -0.68,-41.85 -1.06,-59.55 -0.83,-70.88 -1.24,-107.46 -1.24,-107.46 l -38.56,0 z m -38.55,0 c 0,0 0.52,37.02 1.51,108.8 0.35,17.94 0.14,38.08 1.14,60.3 0.87,22.22 1.82,46.6 2.85,73.07 1.24,26.47 1.7,55.04 3.79,85.61 1.96,30.61 4.05,63.2 6.29,97.87 10.17,138.5 26.2,309.26 57.36,508.28 31.07,198.99 77.31,426.26 146.26,676.23 4.3,15.62 8.43,31.39 12.99,47.19 4.69,15.74 9.42,31.56 14.16,47.54 9.59,31.83 19.3,64.1 29.1,96.78 21.39,64.87 42.02,131.72 66.61,198.99 23.15,67.77 49.85,136.03 76.51,206.06 28.31,69.35 56.48,140.51 88.59,211.77 125.01,286.27 284.09,585.79 482.4,887.49 198.26,301.6 436.63,605 719.07,895.3 282.38,289.9 608.23,567.6 977.84,814.1 184.77,123.1 380.1,238.8 585.3,345 205.09,106.3 420.84,201.4 644.84,285.7 223.96,84.6 457.22,155.8 697.44,213.8 59.92,15.2 120.68,27.6 181.5,40.9 30.33,7 61.11,12.2 91.77,18.2 30.68,5.7 61.4,11.9 92.24,17.3 30.95,5.1 61.96,10.2 93,15.3 l 46.6,7.7 46.87,6.5 c 31.31,4.4 62.58,8.7 94,13.1 31.39,4 62.99,7.3 94.59,11 63.1,7.8 126.71,12.7 190.46,18.4 31.86,3.1 63.9,4.5 95.96,6.7 32.04,1.8 64.11,4.2 96.32,5.7 32.27,1.2 64.57,2.4 96.96,3.6 l 48.56,1.8 48.4,0.5 c 32.24,0.4 64.54,0.8 96.93,1.2 33.18,0 65.24,-0.8 97.98,-1.1 65.25,-0.2 130.61,-3.6 196.21,-6 32.8,-0.9 65.57,-3.8 98.39,-5.7 32.83,-2.3 65.78,-3.8 98.63,-6.8 65.75,-6.1 131.78,-11 197.65,-19.4 32.94,-3.9 66.03,-7.3 99.01,-11.7 32.94,-4.6 65.95,-9.3 98.98,-13.9 33.12,-4.4 66.07,-9.9 99.1,-15.5 32.95,-5.6 66.07,-10.8 99.1,-16.8 65.8,-13 132.13,-24.4 197.88,-39.6 132.04,-27.7 263.26,-62.2 394.31,-99.2 65.28,-19.5 130.88,-38.5 195.71,-60.3 65.31,-20.6 129.73,-44.1 194.56,-66.9 32.36,-11.6 64.37,-24.4 96.58,-36.5 l 48.28,-18.4 c 16.09,-6.2 31.98,-13 47.98,-19.4 31.95,-13.1 63.9,-26.3 95.91,-39.4 31.68,-13.9 63.38,-27.8 95.18,-41.7 506.6,-225.6 990.2,-525.8 1427,-893.1 436.8,-367.1 826.7,-801 1148.3,-1286.1 322,-484.9 575.4,-1020.77 745.2,-1584.59 170.2,-563.7 256.1,-1154.84 255.6,-1745.69 -0.7,-590.87 -87.8,-1181.63 -259.1,-1744.63 -170.8,-563.14 -425.1,-1098.04 -747.7,-1581.63 -322.3,-483.83 -712.4,-916.37 -1149.2,-1281.85 -436.7,-365.82 -920,-664.47 -1425.9,-888.43 -31.7,-13.81 -63.36,-27.64 -94.99,-41.42 -31.95,-13.01 -63.83,-26 -95.75,-39.04 -15.95,-6.45 -31.8,-13.16 -47.87,-19.38 l -48.21,-18.23 c -32.19,-12.04 -64.1,-24.68 -96.44,-36.16 -64.71,-22.63 -129.02,-45.97 -194.21,-66.28 -64.72,-21.69 -130.16,-40.5 -195.29,-59.85 -130.82,-36.58 -261.72,-70.76 -393.47,-98.07 -65.6,-15.01 -131.75,-26.3 -197.38,-39.16 -32.95,-5.86 -66.01,-11 -98.9,-16.5 -32.91,-5.48 -65.76,-11 -98.8,-15.19 -32.91,-4.6 -65.83,-9.17 -98.72,-13.74 -32.91,-4.28 -65.89,-7.62 -98.74,-11.46 -65.69,-8.21 -131.55,-12.93 -197.09,-18.91 -32.77,-2.96 -65.6,-4.34 -98.37,-6.59 -32.77,-1.82 -65.39,-4.7 -98.13,-5.52 -65.39,-2.25 -130.73,-5.48 -195.56,-5.54 -32.53,-0.2 -64.75,-0.93 -97.4,-0.91 -32.39,0.45 -64.75,0.91 -97.05,1.38 l -48.45,0.65 -48.33,1.85 c -32.16,1.23 -64.31,2.52 -96.41,3.75 -32.06,1.58 -64.04,4.02 -95.99,5.95 -31.92,2.23 -63.81,3.66 -95.55,6.86 -63.55,5.77 -126.94,10.84 -189.85,18.78 -31.45,3.73 -62.93,7.01 -94.23,11.09 -31.24,4.42 -62.46,8.82 -93.62,13.21 l -46.72,6.6 -46.43,7.74 c -30.89,5.16 -61.79,10.31 -92.59,15.44 -30.75,5.45 -61.32,11.67 -91.89,17.47 -30.57,6.01 -61.17,11.32 -91.39,18.29 -60.56,13.37 -121.11,25.85 -180.73,41.16 -239.26,58.21 -471.43,129.69 -694.31,214.37 -223,84.48 -437.67,179.53 -641.67,285.87 -204.15,106.1 -398.39,221.7 -582.11,344.72 -367.53,246.15 -691.24,523.17 -971.68,812.32 -280.47,289.44 -517.08,591.78 -713.69,892.25 -196.65,300.52 -354.25,598.72 -478.01,883.68 -31.77,70.97 -59.64,141.78 -87.67,210.78 -26.34,69.67 -52.75,137.58 -75.63,205.06 -24.34,66.88 -44.68,133.42 -65.83,197.93 -9.7,32.5 -19.25,64.6 -28.73,96.32 -4.69,15.85 -9.36,31.65 -13.99,47.24 -4.51,15.71 -8.57,31.4 -12.82,46.96 -68.05,248.64 -113.55,474.63 -144.01,672.44 -30.54,197.94 -46.13,367.65 -55.96,505.29 -2.15,34.47 -4.17,66.92 -6.08,97.28 -1.98,30.4 -2.4,58.8 -3.56,85.09 -0.97,26.33 -1.89,50.53 -2.72,72.63 -0.92,22.11 -0.67,42.07 -1.02,59.89 -0.83,71.34 -1.26,108.15 -1.26,108.15 l -38.55,0" /><path
             id="path26"
             style="fill:#d1f0fc;fill-opacity:1;fill-rule:nonzero;stroke:none"
             d="m 11528.6,10304.3 c 0,-585.55 474.6,-1060.21 1060.2,-1060.21 585.5,0 1060.2,474.66 1060.2,1060.21 0,585.5 -474.7,1060.2 -1060.2,1060.2 -585.6,0 -1060.2,-474.7 -1060.2,-1060.2" /><path
             id="path28"
             style="fill:#d1f0fc;fill-opacity:1;fill-rule:nonzero;stroke:none"
             d="m 8854.32,13053.7 c 0,-644.3 522.32,-1166.7 1166.68,-1166.7 644.3,0 1166.6,522.4 1166.6,1166.7 0,644.3 -522.3,1166.6 -1166.6,1166.6 -644.36,0 -1166.68,-522.3 -1166.68,-1166.6" /><path
             id="path30"
             style="fill:#d1f0fc;fill-opacity:1;fill-rule:nonzero;stroke:none"
             d="m 3904.07,12852.1 c 0,-667.3 540.87,-1208.2 1208.09,-1208.2 667.26,0 1208.19,540.9 1208.19,1208.2 0,667.2 -540.93,1208.1 -1208.19,1208.1 -667.22,0 -1208.09,-540.9 -1208.09,-1208.1" /><path
             id="path32"
             style="fill:#d1f0fc;fill-opacity:1;fill-rule:nonzero;stroke:none"
             d="m 3201.55,10040.5 c 0,-603.95 -489.59,-1093.53 -1093.56,-1093.53 -604,0 -1093.6,489.58 -1093.6,1093.53 0,604 489.6,1093.6 1093.6,1093.6 603.97,0 1093.56,-489.6 1093.56,-1093.6" /><path
             id="path34"
             style="fill:#3a9ea8;fill-opacity:1;fill-rule:nonzero;stroke:none"
             d="m 12276.5,6625.92 c 0,-450.86 365.5,-816.39 816.4,-816.39 450.9,0 816.4,365.53 816.4,816.39 0,450.88 -365.5,816.39 -816.4,816.39 -450.9,0 -816.4,-365.51 -816.4,-816.39" /><path
             id="path36"
             style="fill:#d1f0fc;fill-opacity:1;fill-rule:nonzero;stroke:none"
             d="m 5074.62,1389.94 c 0,-519.264 420.93,-940.256 940.26,-940.256 519.26,0 940.23,420.992 940.23,940.256 0,519.3 -420.97,940.26 -940.23,940.26 -519.33,0 -940.26,-420.96 -940.26,-940.26" /><path
             id="path38"
             style="fill:#d1f0fc;fill-opacity:1;fill-rule:nonzero;stroke:none"
             d="m 11656.9,3416.13 c 0,-585.54 474.7,-1060.2 1060.3,-1060.2 585.5,0 1060.2,474.66 1060.2,1060.2 0,585.54 -474.7,1060.26 -1060.2,1060.26 -585.6,0 -1060.3,-474.72 -1060.3,-1060.26" /><path
             id="path40"
             style="fill:#3a9ea8;fill-opacity:1;fill-rule:nonzero;stroke:none"
             d="m 1413.47,2639.49 c 381.68,-519.1 1111.94,-630.51 1631.03,-248.79 519.09,381.68 630.47,1111.93 248.79,1631.02 -381.69,519.09 -1111.93,630.5 -1631.03,248.79 -519.1,-381.69 -630.49,-1111.93 -248.79,-1631.02" /><path
             id="path42"
             style="fill:#d1f0fc;fill-opacity:1;fill-rule:nonzero;stroke:none"
             d="m 735.234,6540.13 c 0,-585.54 474.646,-1060.2 1060.216,-1060.2 585.51,0 1060.19,474.66 1060.19,1060.2 0,585.53 -474.68,1060.25 -1060.19,1060.25 -585.57,0 -1060.216,-474.72 -1060.216,-1060.25" /><path
             id="path44"
             style="fill:#ffffff;fill-opacity:1;fill-rule:nonzero;stroke:none"
             d="m 6110.2,1019.87 -186.36,0 0,186.47 -186.51,0 0,232.96 186.42,0 0,186.33 186.41,0 0,-186.33 186.42,0 0,-232.96 -186.38,0 0,-186.47" /><path
             id="path46"
             style="fill:#dc333e;fill-opacity:1;fill-rule:nonzero;stroke:none"
             d="m 5737.33,1439.3 186.42,0 0,186.33 186.41,0 0,-186.33 186.42,0 0,-232.96 -186.38,0 0,-186.47 -186.36,0 0,186.47 -186.51,0 0,232.96 z m -417.35,210.86 0,-642.63 c 0,-95.702 78.2,-173.964 173.9,-173.964 l 1046.21,0 c 95.91,0 174.08,78.262 174.08,173.964 l 0,642.63 c 0,95.7 -78.17,161.89 -174.08,161.89 l -196.82,0 0,0.38 -93.29,0 0,-0.38 -756.1,0 c -95.7,0 -173.9,-66.19 -173.9,-161.89" /><path
             id="path48"
             style="fill:#dc333e;fill-opacity:1;fill-rule:nonzero;stroke:none"
             d="m 6249.98,1879.75 c 0,42.71 -38.08,80.81 -80.78,80.81 l -304.45,0 c -42.53,0 -80.73,-38.1 -80.73,-80.81 l 0,-67.7 -93.2,0 0,67.7 c 0,95.79 78.23,173.99 173.93,173.99 l 304.45,0 c 95.61,0 174.07,-78.2 174.07,-173.99 l 0,-67.32 -93.29,0 0,67.32" /><path
             id="path50"
             style="fill:#ffffff;fill-opacity:1;fill-rule:nonzero;stroke:none"
             d="m 4717.23,13196.7 -54.69,-417.6 -283.38,-84.5 c 0,0 -14.91,-203.8 -59.64,-228.7 -44.76,-24.9 -134.25,5 -134.25,5 l 0,198.8 193.89,184 84.54,313.2 253.53,29.8" /><path
             id="path52"
             style="fill:#ffffff;fill-opacity:1;fill-rule:nonzero;stroke:none"
             d="m 5074.24,12708.4 609.047,0 0,508.379 -609.047,0 0,-508.379 z" /><path
             id="path54"
             style="fill:#dc333e;fill-opacity:1;fill-rule:nonzero;stroke:none"
             d="m 4620.45,12342.7 c -10.35,-9.6 -24.15,-15.4 -39.31,-15.4 -15.18,0 -28.96,5.8 -39.3,15.4 -11.55,10.6 -18.85,25.8 -18.85,42.7 0,3.6 0.38,7.2 1.03,10.6 4.95,27 28.61,47.6 57.12,47.6 28.49,0 52.18,-20.6 57.16,-47.6 0.59,-3.4 0.97,-7 0.97,-10.6 0,-16.9 -7.27,-32.1 -18.82,-42.7 z m -234.05,42.7 c 0,-107.5 87.2,-194.7 194.74,-194.7 107.57,0 194.77,87.2 194.77,194.7 0,107.6 -87.2,194.8 -194.77,194.8 -107.54,0 -194.74,-87.2 -194.74,-194.8" /><path
             id="path56"
             style="fill:#dc333e;fill-opacity:1;fill-rule:nonzero;stroke:none"
             d="m 5708.58,12385.4 c 0,3.6 0.38,7.2 0.99,10.6 4.99,27 28.64,47.6 57.13,47.6 28.49,0 52.18,-20.6 57.16,-47.6 0.61,-3.4 1,-7 1,-10.6 0,-16.9 -7.31,-32.1 -18.85,-42.7 -10.35,-9.6 -24.12,-15.4 -39.31,-15.4 -15.15,0 -28.93,5.8 -39.27,15.4 -11.55,10.6 -18.85,25.8 -18.85,42.7 z m -136.62,0 c 0,-107.5 87.23,-194.7 194.77,-194.7 107.54,0 194.74,87.2 194.74,194.7 0,107.6 -87.2,194.8 -194.74,194.8 -107.54,0 -194.77,-87.2 -194.77,-194.8" /><path
             id="path58"
             style="fill:#dc333e;fill-opacity:1;fill-rule:nonzero;stroke:none"
             d="m 5153.35,13017.7 140.83,0 0,140.9 140.87,0 0,-140.9 140.84,0 0,-140.8 -140.84,0 0,-140.9 -140.87,0 0,140.9 -140.83,0 0,140.8 z m -170.33,252.4 0,-636 722.78,0 0,636 -722.78,0" /><path
             id="path60"
             style="fill:#373e4b;fill-opacity:1;fill-rule:nonzero;stroke:none"
             d="m 4188,12602.7 c 50.38,0.9 100.8,0.9 151.16,0 0.88,-30.4 0.88,-59.9 0,-90.4 -50.36,-0.8 -101.62,-0.8 -152.04,0.9 -0.85,29.6 -0.85,59.1 0.88,89.5 z m 215.67,266.9 c 22.83,86.4 50.56,171.2 73.39,256.9 57.89,2.4 116.63,1.6 174.52,1.6 3.28,-86.4 1.64,-172.9 0.82,-259.3 -83.19,0 -165.55,-0.9 -248.73,0.8 z m 676.08,77.7 c 0,157.3 127.56,284.9 284.87,284.9 157.34,0 284.9,-127.6 284.9,-284.9 0,-157.3 -127.56,-284.9 -284.9,-284.9 -157.31,0 -284.87,127.6 -284.87,284.9 z m -942.78,-430 c 0,-31 0.82,-62.8 0.82,-93.8 74.21,0 148.4,0 222.67,0.8 24.45,107.6 128.85,194.1 241.38,177.8 98.98,-5.6 168.68,-88 198.84,-175.6 l 0,-7.9 750.77,0 c 12.07,78.8 66.56,143.9 139.37,171.2 23.77,8.9 49.45,13.7 76.23,13.7 96.93,0 179.24,-63.5 207.58,-151.1 3.52,-10.9 6.28,-22.2 8.06,-33.8 l 39.84,0 0,924.3 -917.66,0 c 0,0.9 0,1.9 0,3.1 l -215.29,0 c 0,-1.1 0.03,-2.2 0.03,-3.1 l -88.93,0 0,-50 c -114.13,0.8 -228.3,1.5 -343.2,-0.1 8.97,-112.5 -44.87,-214.4 -70.93,-321.3 -16.33,-40.8 -13.89,-99.5 -61.99,-118.2 -48.13,-23.7 -97.08,-45.7 -145.15,-67.7 -3.31,-88.9 -0.85,-177 -1.64,-265.9 -13.89,-0.8 -26.94,-1.6 -40.8,-2.4" /><path
             id="path62"
             style="fill:#dc333e;fill-opacity:1;fill-rule:nonzero;stroke:none"
             d="m 4889.49,13461.8 c 0,59.5 48.25,107.8 107.75,107.8 59.5,0 107.77,-48.3 107.77,-107.8 0,-20 -0.14,-92.7 -0.14,-115.8 l -215.29,0 c -0.09,23.5 -0.09,95.8 -0.09,115.8" /><path
             id="path64"
             style="fill:#373e4b;fill-opacity:1;fill-rule:nonzero;stroke:none"
             d="m 4872.9,13350.4 c 0,-10.8 8.74,-19.5 19.55,-19.5 l 216.4,0 c 10.79,0 19.55,8.7 19.55,19.5 l 0,0 c 0,10.8 -8.76,19.6 -19.55,19.6 l -216.4,0 c -10.81,0 -19.55,-8.8 -19.55,-19.6 l 0,0" /><path
             id="path66"
             style="fill:#dc333e;fill-opacity:1;fill-rule:nonzero;stroke:none"
             d="m 10644.3,13165.6 c -0.9,2 -1.5,4.2 -1.6,6.4 -7.4,154.4 -142,289 -296.4,296.3 -12.4,0.7 -22.6,15.7 -22.9,33.6 -0.2,17.8 12.1,31.8 27.5,30.9 185.8,-9 347.3,-170.5 356.3,-356.3 0.2,-3.9 -0.5,-7.6 -2.1,-10.9 -4.4,-9.8 -15.5,-16.6 -28.9,-16.5 -14.6,0.2 -27.4,7.1 -31.9,16.5 z m -1446.66,-0.4 c 0,-35.1 4.22,-69.2 11.99,-101.9 0.29,-1.2 0.58,-2.3 0.82,-3.4 0.43,-2 0.99,-3.9 1.43,-5.9 14.75,-60.3 41.18,-118.8 74.77,-174.3 43.79,-72.3 99.78,-139.5 158.1,-199.1 l 452.27,0 c 14.54,0 27.55,-9 32.83,-22.5 l 73.35,-191.2 259.4,643.4 c 5.2,12.9 17.5,21.5 31.4,22 12.3,0.8 26.7,-7.3 32.8,-19.7 l 119.2,-245.4 224.5,0 c 1.8,0 3.6,-0.2 5.4,-0.5 18.5,29.3 34.9,59.5 48.9,90.3 14.3,31.7 25.8,64.1 33.9,97 0.4,2 1,3.9 1.4,5.9 0.3,1.1 0.6,2.2 0.9,3.4 7.7,32.7 12,66.8 12,101.9 0,1.9 -0.1,3.8 -0.1,5.8 -2.3,176.7 -109.6,328.1 -262.3,394.7 -6.1,2.1 -12.2,4.1 -18.4,5.9 -49,19.2 -102.2,30 -157.7,30.3 -137.9,-0.5 -260.7,-65.1 -340.35,-165.3 -5.56,-4.2 -8.38,-6.6 -8.38,-6.6 -0.18,0.1 -0.35,0.2 -0.47,0.3 -0.03,0.1 -0.06,0.1 -0.09,0.1 -79.78,104.2 -205.46,171.5 -346.98,171.5 -0.7,0 -1.37,0 -2.08,0 -0.58,0 -1.17,0 -1.72,0 -62.05,0 -121.03,-12.9 -174.47,-36.2 -77.49,-27.3 -148.69,-84.3 -206.02,-182.5 -10.58,-18.6 -19.81,-37.7 -27.43,-56.5 -21.02,-52.1 -29.75,-104.3 -28.81,-155.7 -0.04,-2 -0.06,-3.9 -0.06,-5.8" /><path
             id="path68"
             style="fill:#dc333e;fill-opacity:1;fill-rule:nonzero;stroke:none"
             d="m 9969.74,12358.4 c 5.16,-13.5 18.05,-22.4 32.46,-22.5 0.1,0 0.2,0 0.3,0 14.3,0 27.2,8.7 32.6,22.1 l 263.2,652.7 94.2,-193.9 c 5.9,-12.1 18.2,-19.7 31.6,-19.7 l 203.2,0 c -151.1,-198 -373,-344.5 -420.8,-378.1 -46.4,-32.5 -105.4,-69.6 -150.8,-97.4 -43.8,-28.4 -69.87,-42.7 -69.87,-42.7 0,0 -0.2,0.1 -0.53,0.3 -0.35,-0.2 -0.55,-0.3 -0.55,-0.3 0,0 -26.09,14.3 -69.85,42.7 -45.46,27.8 -104.41,64.9 -150.81,97.4 -31.07,21.8 -135.53,91.3 -246.35,191.5 l 355.21,-0.1 96.79,-252" /><path
             id="path70"
             style="fill:#ffffff;fill-opacity:1;fill-rule:nonzero;stroke:none"
             d="m 2812.18,3156.41 -860.97,495.61 -71.28,-40.77 -63.39,-134.15 40.77,-71.28 834.9,-466.13 119.97,216.72" /><path
             id="path72"
             style="fill:#373e4b;fill-opacity:1;fill-rule:nonzero;stroke:none"
             d="m 2444.57,3117.93 64.89,113.16 -25.32,14.51 -64.89,-113.17 25.32,-14.5" /><path
             id="path74"
             style="fill:#373e4b;fill-opacity:1;fill-rule:nonzero;stroke:none"
             d="m 2576.82,3042.13 64.88,113.14 -25.31,14.53 -64.88,-113.16 25.31,-14.51" /><path
             id="path76"
             style="fill:#373e4b;fill-opacity:1;fill-rule:nonzero;stroke:none"
             d="m 2510.69,3080.03 48.03,83.77 -25.31,14.5 -48.03,-83.76 25.31,-14.51" /><path
             id="path78"
             style="fill:#373e4b;fill-opacity:1;fill-rule:nonzero;stroke:none"
             d="m 2642.94,3004.2 48.02,83.77 -25.32,14.51 -48.01,-83.77 25.31,-14.51" /><path
             id="path80"
             style="fill:#dc333e;fill-opacity:1;fill-rule:nonzero;stroke:none"
             d="m 1881.63,3551.96 c 0,0 36.51,84.94 104.33,46.04 l 491.29,-281.61 -93.71,-163.47 -502.28,287.95 c 0,0 -48.06,27.58 0.37,111.09" /><path
             id="path82"
             style="fill:#373e4b;fill-opacity:1;fill-rule:nonzero;stroke:none"
             d="m 1807.22,3523.73 c 0.11,0.32 0.21,0.65 0.32,1 0.01,-0.03 0.01,-0.03 0.03,-0.03 -0.12,-0.32 -0.24,-0.65 -0.35,-0.97" /><path
             id="path84"
             style="fill:#373e4b;fill-opacity:1;fill-rule:nonzero;stroke:none"
             d="m 1861.19,3620.22 c 8.09,8.85 14.92,14.89 18.98,18.23 -6.81,-6 -12.95,-12.48 -18.33,-18.81 -0.22,0.2 -0.43,0.38 -0.65,0.58" /><path
             id="path86"
             style="fill:#3aa8a0;fill-opacity:1;fill-rule:nonzero;stroke:none"
             d="m 1761.9,3631.8 0.65,1.14 c 6.83,11.9 27.57,12.84 46.33,2.08 l 30.35,-17.38 c 4.34,6.25 12.77,8.33 19.49,4.46 0.94,-0.53 1.71,-1.2 2.47,-1.88 -17.09,-18.76 -39.74,-50.15 -53.65,-95.49 -1.3,0.29 -2.58,0.76 -3.82,1.43 -6.71,3.88 -9.2,12.17 -5.99,19.05 l -30.34,17.42 c -18.77,10.75 -28.43,29.16 -21.6,41.06 l 0.66,1.11 -0.02,0.04 15.47,26.96 0,0" /><path
             id="path88"
             style="fill:#ffffff;fill-opacity:1;fill-rule:nonzero;stroke:none"
             d="m 1390.48,3844.74 371.42,-212.94 -15.47,-26.96 -325.8,186.76 -30.15,53.14" /><path
             id="path90"
             style="fill:#373e4b;fill-opacity:1;fill-rule:nonzero;stroke:none"
             d="m 1866.97,3560.37 c 0,0 45.7,96.72 115.36,56.77 l 806.92,-462.6 -14.12,-24.68 -0.5,-0.86 -83.12,-144.96 -0.49,-0.88 -14.21,-24.77 -812.43,465.77 c 0,0 -49.41,45.52 2.59,136.21 z m -29.01,-155.23 0,0 820.59,-470.46 -16.39,-28.61 51.06,-29.25 13.81,24.09 27.3,47.6 98.1,172.32 1.03,0.58 35.08,61.18 -51.09,29.25 -16.04,-28 -820.59,470.47 c -39.88,22.86 -74.99,6.83 -100.65,-15.86 -6.81,-6 -12.95,-12.48 -18.33,-18.81 -0.22,0.2 -0.43,0.38 -0.65,0.58 -17.09,-18.76 -39.74,-50.15 -53.65,-95.49 0.01,-0.03 0.01,-0.03 0.03,-0.03 -0.12,-0.32 -0.24,-0.65 -0.35,-0.97 -12.76,-37.4 -18.98,-90.07 30.74,-118.59" /><path
             id="path92"
             style="fill:#4b5869;fill-opacity:1;fill-rule:nonzero;stroke:none"
             d="m 2734.33,2948.51 98.1,172.32 1.03,0.58 -7.07,-12.31 353.41,-202.59 -92.07,-160.6 -353.4,202.6" /><path
             id="path94"
             style="fill:#373e4b;fill-opacity:1;fill-rule:nonzero;stroke:none"
             d="m 3179.8,2906.51 54.14,94.35 66.33,-38.02 -199.9,-348.62 -66.33,38.02 53.69,93.67 92.07,160.6" /><path
             id="path96"
             style="fill:#2b3035;fill-opacity:1;fill-rule:nonzero;stroke:none"
             d="m 1910.46,10485.4 500.457,0 0,155.32 -500.457,0 0,-155.32 z" /><path
             id="path98"
             style="fill:#3d444f;fill-opacity:1;fill-rule:nonzero;stroke:none"
             d="m 1634.8,10198.5 c 0,200.6 141.43,363.2 315.89,363.2 l 420,0 c 174.48,0 315.89,-162.6 315.89,-363.2 l 0,-813.86 c 0,-11.2 -0.62,-22.16 -1.56,-33.03 0.2,-1.85 0.49,-3.67 0.49,-5.54 0,-6.3 -1.14,-12.2 -3.16,-17.62 -0.18,-1.32 -0.28,-2.7 -0.46,-4.04 l -1.44,0 c -6.65,-13.63 -19.14,-22.93 -33.71,-22.93 l -972.1,0 c -14.53,0 -27.03,9.3 -33.67,22.93 l -1.47,0 c -0.2,1.37 -0.28,2.75 -0.49,4.13 -1.98,5.36 -3.11,11.28 -3.11,17.53 0,1.84 0.3,3.6 0.51,5.42 -0.99,10.9 -1.61,21.92 -1.61,33.15 l 0,813.86" /><path
             id="path100"
             style="fill:#ecf9f6;fill-opacity:1;fill-rule:nonzero;stroke:none"
             d="m 1715.6,9799.18 c 0,-114.25 80.53,-206.84 179.9,-206.84 l 530.38,0 c 99.39,0 179.9,92.59 179.9,206.84 l 0,140.13 c 0,114.19 -80.51,206.89 -179.9,206.89 l -530.38,0 c -99.37,0 -179.9,-92.7 -179.9,-206.89 l 0,-140.13" /><path
             id="path102"
             style="fill:#fac251;fill-opacity:1;fill-rule:nonzero;stroke:none"
             d="m 1844.07,9973.81 633.277,0 0,83.652 -633.277,0 0,-83.652 z" /><path
             id="path104"
             style="fill:#fac251;fill-opacity:1;fill-rule:nonzero;stroke:none"
             d="m 1844.07,9820.61 633.277,0 0,83.6523 -633.277,0 0,-83.6523 z" /><path
             id="path106"
             style="fill:#fac251;fill-opacity:1;fill-rule:nonzero;stroke:none"
             d="m 1912.7,9667.4 495.988,0 0,83.6523 -495.988,0 0,-83.6523 z" /><path
             id="path108"
             style="fill:#f28619;fill-opacity:1;fill-rule:nonzero;stroke:none"
             d="m 2033.95,10640.7 25.0664,0 0,206.23 -25.0664,0 0,-206.23 z" /><path
             id="path110"
             style="fill:#f28619;fill-opacity:1;fill-rule:nonzero;stroke:none"
             d="m 2091.29,10640.7 25.0742,0 0,206.23 -25.0742,0 0,-206.23 z" /><path
             id="path112"
             style="fill:#f28619;fill-opacity:1;fill-rule:nonzero;stroke:none"
             d="m 2435.48,10640.7 25.082,0 0,206.23 -25.082,0 0,-206.23 z" /><path
             id="path114"
             style="fill:#f28619;fill-opacity:1;fill-rule:nonzero;stroke:none"
             d="m 2378.11,10640.7 25.0703,0 0,206.23 -25.0703,0 0,-206.23 z" /><path
             id="path116"
             style="fill:#f28619;fill-opacity:1;fill-rule:nonzero;stroke:none"
             d="m 2148.66,10640.7 25.0781,0 0,206.23 -25.0781,0 0,-206.23 z" /><path
             id="path118"
             style="fill:#f28619;fill-opacity:1;fill-rule:nonzero;stroke:none"
             d="m 2206.01,10640.7 25.082,0 0,206.23 -25.082,0 0,-206.23 z" /><path
             id="path120"
             style="fill:#f28619;fill-opacity:1;fill-rule:nonzero;stroke:none"
             d="m 1976.58,10640.7 25.0625,0 0,206.23 -25.0625,0 0,-206.23 z" /><path
             id="path122"
             style="fill:#f28619;fill-opacity:1;fill-rule:nonzero;stroke:none"
             d="m 2320.75,10640.7 25.0664,0 0,206.23 -25.0664,0 0,-206.23 z" /><path
             id="path124"
             style="fill:#f28619;fill-opacity:1;fill-rule:nonzero;stroke:none"
             d="m 1919.19,10640.7 25.0938,0 0,206.23 -25.0938,0 0,-206.23 z" /><path
             id="path126"
             style="fill:#f28619;fill-opacity:1;fill-rule:nonzero;stroke:none"
             d="m 1861.85,10640.7 25.0742,0 0,206.23 -25.0742,0 0,-206.23 z" /><path
             id="path128"
             style="fill:#f28619;fill-opacity:1;fill-rule:nonzero;stroke:none"
             d="m 2263.38,10640.7 25.0781,0 0,206.23 -25.0781,0 0,-206.23 z" /><path
             id="path130"
             style="fill:#f28619;fill-opacity:1;fill-rule:nonzero;stroke:none"
             d="m 1807.53,10640.7 22.0625,0 0,206.23 -22.0625,0 0,-206.23 z" /><path
             id="path132"
             style="fill:#f28619;fill-opacity:1;fill-rule:nonzero;stroke:none"
             d="m 2492.83,10640.7 21.0391,0 0,206.23 -21.0391,0 0,-206.23 z" /><path
             id="path134"
             style="fill:#ca1894;fill-opacity:1;fill-rule:nonzero;stroke:none"
             d="m 2492.83,10846.9 -32.27,0" /><path
             id="path136"
             style="fill:#dea84e;fill-opacity:1;fill-rule:nonzero;stroke:none"
             d="m 2460.56,10640.7 32.2695,0 0,206.23 -32.2695,0 0,-206.23 z" /><path
             id="path138"
             style="fill:#ca1894;fill-opacity:1;fill-rule:nonzero;stroke:none"
             d="m 2435.48,10846.9 -32.3,0" /><path
             id="path140"
             style="fill:#dea84e;fill-opacity:1;fill-rule:nonzero;stroke:none"
             d="m 2403.18,10640.7 32.2969,0 0,206.23 -32.2969,0 0,-206.23 z" /><path
             id="path142"
             style="fill:#ca1894;fill-opacity:1;fill-rule:nonzero;stroke:none"
             d="m 2378.11,10846.9 -32.3,0" /><path
             id="path144"
             style="fill:#dea84e;fill-opacity:1;fill-rule:nonzero;stroke:none"
             d="m 2345.81,10640.7 32.2969,0 0,206.23 -32.2969,0 0,-206.23 z" /><path
             id="path146"
             style="fill:#ca1894;fill-opacity:1;fill-rule:nonzero;stroke:none"
             d="m 2320.75,10846.9 -32.29,0" /><path
             id="path148"
             style="fill:#dea84e;fill-opacity:1;fill-rule:nonzero;stroke:none"
             d="m 2288.46,10640.7 32.2891,0 0,206.23 -32.2891,0 0,-206.23 z" /><path
             id="path150"
             style="fill:#ca1894;fill-opacity:1;fill-rule:nonzero;stroke:none"
             d="m 2263.38,10846.9 -32.29,0" /><path
             id="path152"
             style="fill:#dea84e;fill-opacity:1;fill-rule:nonzero;stroke:none"
             d="m 2231.09,10640.7 32.2891,0 0,206.23 -32.2891,0 0,-206.23 z" /><path
             id="path154"
             style="fill:#ca1894;fill-opacity:1;fill-rule:nonzero;stroke:none"
             d="m 2206.01,10846.9 -32.27,0" /><path
             id="path156"
             style="fill:#dea84e;fill-opacity:1;fill-rule:nonzero;stroke:none"
             d="m 2173.74,10640.7 32.2695,0 0,206.23 -32.2695,0 0,-206.23 z" /><path
             id="path158"
             style="fill:#ca1894;fill-opacity:1;fill-rule:nonzero;stroke:none"
             d="m 2148.66,10846.9 -32.3,0" /><path
             id="path160"
             style="fill:#dea84e;fill-opacity:1;fill-rule:nonzero;stroke:none"
             d="m 2116.36,10640.7 32.2969,0 0,206.23 -32.2969,0 0,-206.23 z" /><path
             id="path162"
             style="fill:#ca1894;fill-opacity:1;fill-rule:nonzero;stroke:none"
             d="m 2091.29,10846.9 -32.28,0" /><path
             id="path164"
             style="fill:#dea84e;fill-opacity:1;fill-rule:nonzero;stroke:none"
             d="m 2059.01,10640.7 32.2773,0 0,206.23 -32.2773,0 0,-206.23 z" /><path
             id="path166"
             style="fill:#ca1894;fill-opacity:1;fill-rule:nonzero;stroke:none"
             d="m 2033.95,10846.9 -32.31,0" /><path
             id="path168"
             style="fill:#dea84e;fill-opacity:1;fill-rule:nonzero;stroke:none"
             d="m 2001.64,10640.7 32.3047,0 0,206.23 -32.3047,0 0,-206.23 z" /><path
             id="path170"
             style="fill:#ca1894;fill-opacity:1;fill-rule:nonzero;stroke:none"
             d="m 1976.58,10846.9 -32.29,0" /><path
             id="path172"
             style="fill:#dea84e;fill-opacity:1;fill-rule:nonzero;stroke:none"
             d="m 1944.29,10640.7 32.293,0 0,206.23 -32.293,0 0,-206.23 z" /><path
             id="path174"
             style="fill:#ca1894;fill-opacity:1;fill-rule:nonzero;stroke:none"
             d="m 1919.19,10846.9 -32.26,0" /><path
             id="path176"
             style="fill:#dea84e;fill-opacity:1;fill-rule:nonzero;stroke:none"
             d="m 1886.93,10640.7 32.2656,0 0,206.23 -32.2656,0 0,-206.23 z" /><path
             id="path178"
             style="fill:#ca1894;fill-opacity:1;fill-rule:nonzero;stroke:none"
             d="m 1861.85,10846.9 -32.26,0" /><path
             id="path180"
             style="fill:#dea84e;fill-opacity:1;fill-rule:nonzero;stroke:none"
             d="m 1829.59,10640.7 32.2617,0 0,206.23 -32.2617,0 0,-206.23 z" /><path
             id="path182"
             style="fill:#ffffff;fill-opacity:1;fill-rule:nonzero;stroke:none"
             d="m 1841.04,9568.39 c 58.37,-38.87 77.56,-114.46 47.39,-175.72 l -227.81,151.71 c 44.9,51.44 122.04,62.87 180.42,24.01" /><path
             id="path184"
             style="fill:#ffffff;fill-opacity:1;fill-rule:nonzero;stroke:none"
             d="m 1687.98,9338.56 c -58.36,38.87 -77.55,114.46 -47.38,175.75 l 227.8,-151.71 c -44.89,-51.47 -122.04,-62.9 -180.42,-24.04" /><path
             id="path186"
             style="fill:#ebe8e4;fill-opacity:1;fill-rule:nonzero;stroke:none"
             d="m 12636.6,6418.28 c 1.8,216.81 154.5,358.41 358.3,403.11 l 0,341.91 -29.8,0 c -24.2,0 -43.8,19.61 -43.8,43.79 0,24.27 19.6,43.82 43.8,43.82 l 127.8,0 0,-832.63 -456.3,0" /><path
             id="path188"
             style="fill:#fffbf8;fill-opacity:1;fill-rule:nonzero;stroke:none"
             d="m 13092.9,7250.91 128,0 c 24.1,0 43.7,-19.55 43.7,-43.82 0,-24.18 -19.6,-43.79 -43.7,-43.79 l -29.9,0 0,-341.91 c 203.8,-44.7 356.5,-186.3 358.2,-403.11 l -456.3,0 0,832.63" /><path
             id="path190"
             style="fill:#e14252;fill-opacity:1;fill-rule:nonzero;stroke:none"
             d="m 13549.2,6418.28 c 0,-1.29 0.3,-2.43 0.3,-3.69 0,-252.16 -199.9,-413.7 -452.1,-413.7 -1.5,0 -3,0.18 -4.5,0.18 l 0,417.21 456.3,0" /><path
             id="path192"
             style="fill:#dc333e;fill-opacity:1;fill-rule:nonzero;stroke:none"
             d="m 12636.3,6414.59 c 0,1.26 0.3,2.4 0.3,3.69 l 456.3,0 0,-417.21 c -250.1,1.88 -456.6,162.88 -456.6,413.52" /><path
             id="path194"
             style="fill:#373e4b;fill-opacity:1;fill-rule:nonzero;stroke:none"
             d="m 1949.89,6929.78 -147.18,0 c -12.21,0 -22.09,9.85 -22.09,22.07 0,12.19 9.88,22.04 22.09,22.04 l 147.18,0 c 12.19,0 22.12,-9.85 22.12,-22.04 0,-12.22 -9.93,-22.07 -22.12,-22.07" /><path
             id="path196"
             style="fill:#373e4b;fill-opacity:1;fill-rule:nonzero;stroke:none"
             d="m 1949.89,7062.18 -147.18,0 c -12.21,0 -22.09,9.9 -22.09,22.12 0,12.2 9.88,22.05 22.09,22.05 l 147.18,0 c 12.19,0 22.12,-9.85 22.12,-22.05 0,-12.22 -9.93,-22.12 -22.12,-22.12" /><path
             id="path198"
             style="fill:#dc333e;fill-opacity:1;fill-rule:nonzero;stroke:none"
             d="m 1780.62,6797.24 c 0,12.25 9.88,22.13 22.09,22.13 l 147.18,0 c 12.19,0 22.12,-9.88 22.12,-22.13 0,-12.14 -9.93,-22.07 -22.12,-22.07 l -147.18,0 c -12.21,0 -22.09,9.93 -22.09,22.07 z m 0,-121.41 c 0,12.2 9.88,22.05 22.09,22.05 l 147.18,0 c 12.19,0 22.12,-9.85 22.12,-22.05 0,-12.22 -9.93,-22.1 -22.12,-22.1 l -147.18,0 c -12.21,0 -22.09,9.88 -22.09,22.1 z m 0,-121.43 c 0,12.22 9.88,22.07 22.09,22.07 l 147.18,0 c 12.19,0 22.12,-9.85 22.12,-22.07 0,-12.2 -9.93,-22.1 -22.12,-22.1 l -147.18,0 c -12.21,0 -22.09,9.9 -22.09,22.1 z m -136.61,334.05 c -72.78,0 -165.75,-18.55 -204.75,-27.14 l 0,-330.01 c 0,0 80.85,-163.17 352.82,-163.17 271.99,0 307.99,175.25 307.99,175.25 l 0,318.1 c -46.08,9.41 -163.72,28.23 -247.1,-4.39 0,0 -114.43,31.36 -208.96,31.36" /><path
             id="path200"
             style="fill:#373e4b;fill-opacity:1;fill-rule:nonzero;stroke:none"
             d="m 1439.26,7224.21 660.81,0 0,-680.83 c 0,0 -36,-175.25 -307.99,-175.25 -271.97,0 -352.82,163.17 -352.82,163.17 l 0,692.91 z m -57.51,98.48 0,-768.21 c 0,-137.69 112.63,-250.39 250.39,-250.39 l 44.22,0 c 0.87,-24.13 29.46,-44.21 68.42,-51.18 l 0,-142.51 -1.33,0 c -22.98,0 -41.79,-18.79 -41.79,-41.68 l 0,-144.77 c 0,-22.95 18.81,-41.7 41.79,-41.7 l 1.33,0 0,-263.66 58.94,0 0,263.66 1.37,0 c 22.87,0 41.74,18.75 41.74,41.7 l 0,144.77 c 0,22.89 -18.87,41.68 -41.74,41.68 l -1.37,0 0,142.51 c 39.03,7 67.56,27.05 68.42,51.18 l 44.32,0 c 137.75,0 250.36,112.7 250.36,250.39 l 0,768.21 c 0,32.51 -26.33,58.86 -58.84,58.86 l -667.39,0 c -32.5,0 -58.84,-26.35 -58.84,-58.86" /><path
             id="path202"
             style="fill:#fafafb;fill-opacity:1;fill-rule:nonzero;stroke:none"
             d="m 12631.7,10778.9 352.2,-956.97 -92.3,-172.44 -182.2,48.57 -369.1,981.24 291.4,99.6" /><path
             id="path204"
             style="fill:#3a484c;fill-opacity:1;fill-rule:nonzero;stroke:none"
             d="m 12363.3,10679.6 357.9,-960.23 132.3,-53.67 44.2,16.44 64.9,127.21 -357.9,960.25 48.2,20.8 363.3,-974.75 -91.4,-179 68,-182.25 -30.3,-11.26 -1.6,-0.58 -30.2,-11.29 -67.9,182.26 -186.3,75.5 -363.3,974.77 50.1,15.8" /><path
             id="path206"
             style="fill:#dc333e;fill-opacity:1;fill-rule:nonzero;stroke:none"
             d="m 12765.6,10286.6 170.1,-456.38 -53.1,-117.04 -38,-14.13 -116.7,53.73 -170.1,456.32 207.8,77.5" /><path
             id="path208"
             style="fill:#dc333e;fill-opacity:1;fill-rule:nonzero;stroke:none"
             d="m 12300.9,10761.1 -63.1,169.4 c -30.6,82.1 11.2,173.6 93.4,204.3 l 118.5,-318.2 -148.8,-55.5" /><path
             id="path210"
             style="fill:#c6313b;fill-opacity:1;fill-rule:nonzero;stroke:none"
             d="m 12331.2,11134.8 c 82.1,30.6 173.6,-11.2 204.2,-93.4 l 63.2,-169.4 -148.9,-55.4 -118.5,318.2" /><path
             id="path212"
             style="fill:#2c3335;fill-opacity:1;fill-rule:nonzero;stroke:none"
             d="m 12598.6,10872 52.9,19.8 c 29.7,11 63.6,-6.5 75.8,-39.3 12.2,-32.7 -2,-68.1 -31.6,-79.2 l -201.8,-75.2 -16.3,43.5 -27.9,75 148.9,55.4" /><path
             id="path214"
             style="fill:#3a484c;fill-opacity:1;fill-rule:nonzero;stroke:none"
             d="m 12247.9,10741.4 53,19.7 148.8,55.5 27.9,-75 16.3,-43.5 -201.8,-75.2 c -29.7,-11.1 -63.5,6.5 -75.7,39.2 -12.2,32.8 1.9,68.2 31.5,79.3" /><path
             id="path216"
             style="fill:#dc333e;fill-opacity:1;fill-rule:nonzero;stroke:none"
             d="m 12879,4183.31 -91.9,0 0,-91.95 -79.9,0 0,91.95 -92,0 0,79.99 92,0 0,91.83 79.9,0 0,-91.83 91.9,0 0,-79.99 z m 138,-244.01 c 2.3,-2.02 4.4,-4.22 6.7,-6.33 l 146.5,113.23 c 0,0 -36.5,354.57 -422.7,370.28 -386.2,-20.9 -423.5,-369.7 -423.5,-369.7 l 150,-115.81 c 5.7,6.01 9.1,9.09 9.1,9.09 l -0.1,-0.44 c 68.7,70.67 170.3,116.4 304,97.26 0,0 126.6,-3.67 229.2,-96.82 l 0,0 c 0,0 0.3,-0.29 0.8,-0.76" /><path
             id="path218"
             style="fill:#2c3335;fill-opacity:1;fill-rule:nonzero;stroke:none"
             d="m 12763.9,3005.7 -124.4,244.18 0.2,0.97 8,34.03 c 32.7,-11.52 67.9,-17.85 104.5,-17.85 42.4,0 83,8.44 120,23.65 l 11.6,-49.47 -119.9,-235.51 z m 119.7,305.12 c -1.4,-0.5 -4.1,-2 -4.1,-2 -38.7,-17.96 -81.8,-28.31 -127.3,-28.31 -87.2,0 -165.7,37.11 -221.2,96.08 -50.9,75.27 -55.1,178.01 -46.6,233.17 209.9,79.55 302.6,226.92 302.6,226.92 82.9,-226.92 277.8,-184.57 219.8,-376.2 -14.2,-53.32 -38.4,-88.28 -62.5,-111.27 -18.5,-15.15 -38.9,-27.9 -60.7,-38.39 z m -128.4,-322.21 8.7,-17.09 0.1,-0.23 8.6,17.32 120.2,236.03 3.7,6.78 3.7,7.79 -2.1,9.15 -11.5,48.68 c 15.8,7.45 30.9,16.03 45.1,25.83 45.3,-71.35 193.9,-64.6 193.9,-64.6 -42.7,84.32 -4.8,93.32 11.3,311.36 l 0,0 c 4.8,28.96 5.7,59.06 2.1,89.66 -15.9,115.52 -61.7,192.57 -115.3,244.16 -2.3,2.17 -4.4,4.34 -6.7,6.36 -0.5,0.47 -0.8,0.79 -0.8,0.79 l 0,-0.03 c -102.6,93.15 -229.2,96.82 -229.2,96.82 -133.7,19.14 -235.3,-26.59 -304,-97.23 l 0.1,0.44 c 0,0 -3.4,-3.1 -9.1,-9.11 -30.3,-32.1 -125.1,-148.26 -111.6,-331.86 16,-218.04 53.9,-227.04 11.3,-311.36 0,0 138.7,-6.28 189,57.71 13,-3.87 24.2,-5.86 32.2,-6.86 12.2,-7.03 25,-13.28 38.2,-18.64 l -9,-38.37 -0.8,-3.25 10.7,-22.37 121.2,-237.88" /><path
             id="path220"
             style="fill:#3a484c;fill-opacity:1;fill-rule:nonzero;stroke:none"
             d="m 12853,3592.29 c 0,15.01 12.2,27.17 27.2,27.17 15,0 27.1,-12.16 27.1,-27.17 0,-15.01 -12.1,-27.17 -27.1,-27.17 -15,0 -27.2,12.16 -27.2,27.17" /><path
             id="path222"
             style="fill:#3a484c;fill-opacity:1;fill-rule:nonzero;stroke:none"
             d="m 12631.6,3568.4 c -14.1,0 -25.5,11.43 -25.5,25.53 0,14.1 11.4,25.53 25.5,25.53 14.1,0 25.5,-11.43 25.5,-25.53 0,-14.1 -11.4,-25.53 -25.5,-25.53" /><path
             id="path224"
             style="fill:#2c3335;fill-opacity:1;fill-rule:nonzero;stroke:none"
             d="m 12909.5,3239.63 c 128.7,-32.19 237.8,-101.63 308.7,-193.22 55.4,-71.58 87.5,-156.67 87.5,-247.91 l -518.8,0 0,184.21 144,0 -21.4,256.92" /><path
             id="path226"
             style="fill:#2c3335;fill-opacity:1;fill-rule:nonzero;stroke:none"
             d="m 12050.4,2984.53 4.8,99.69 c 0.6,12.1 4.5,23.77 11.3,33.73 13,19.12 34.5,29.87 57.5,28.76 36.2,-1.73 64.3,-32.62 62.6,-68.82 l -4.8,-97.87 c -33.4,11.28 -81.3,20.05 -131.4,4.51 z m -31,-44.17 21.5,9.76 c 55.9,25.38 111.7,11.87 148.7,-3.92 l 11.7,-4.99 7.4,-3.16 1.3,28.02 5.3,110.44 c 2.6,52.08 -37.8,96.49 -89.8,99.01 -33.2,1.58 -64.2,-13.86 -82.9,-41.36 -9.7,-14.36 -15.3,-31.16 -16.2,-48.57 l -7,-145.23" /><path
             id="path228"
             style="fill:#e51e27;fill-opacity:1;fill-rule:nonzero;stroke:none"
             d="m 12230.1,2950.39 c 0.5,-0.27 1.2,-0.59 1.7,-0.82 l 1.3,-0.74 -3.7,-0.53 0.7,2.09" /><path
             id="path230"
             style="fill:#2c3335;fill-opacity:1;fill-rule:nonzero;stroke:none"
             d="m 12267.1,2966.27 33.1,94.12 c 4.1,11.43 11.1,21.48 20.5,29.1 17.9,14.57 41.6,18.73 63.4,11.05 34.1,-12.01 52.2,-49.62 40.1,-83.79 l -32.5,-92.45 c -28.8,20.4 -72.2,42.5 -124.6,41.97 z m -41.6,-31.39 c 0.5,-0.29 1.1,-0.59 1.6,-0.85 l 1.4,-0.7 19.6,2.66 c 60.8,8.36 110.4,-20.57 141.4,-46.34 l 15.9,-13.27 46,130.75 c 17.4,49.21 -8.6,103.29 -57.8,120.64 -13.6,4.81 -27.7,6.36 -41.5,4.9 -17.9,-1.91 -35.1,-8.97 -49.6,-20.81 -13.5,-10.97 -23.7,-25.44 -29.5,-41.86 l -3.5,-10.05 -33,-93.88 -8.8,-24.86 -2.2,-6.33" /><path
             id="path232"
             style="fill:#dc333e;fill-opacity:1;fill-rule:nonzero;stroke:none"
             d="m 12041.2,2925.53 42.9,12.9 c -20.4,-11.99 -23.3,-26.21 -23.3,-26.21 -43,-132.54 2.7,-176.65 2.7,-176.65 -64.1,38.13 -22.3,189.96 -22.3,189.96 z m -25.3,-122.52 c -2.4,-49.8 36.1,-92.27 85.9,-94.7 22.3,-1.06 43.6,5.98 60.5,19.37 3.7,2.99 7.2,6.28 10.5,9.85 1.4,1.5 2.7,3.05 4,4.66 1.5,1.82 2.9,3.7 4.2,5.69 7.2,10.55 12,22.54 14.2,35.11 0.7,3.72 1.1,7.47 1.3,11.29 l 2.3,47.07 2.2,46.02 1.9,38.6 0.3,6.8 -1.1,0.56 -3.8,-0.53 0.8,2.08 c -2.6,1.32 -5.6,2.73 -8.8,4.16 -25.2,11.43 -68.3,25.35 -114.8,15.92 0.8,-1.38 -15.9,-4.22 -15.9,-4.22 -11.8,-3.78 -23.8,-9.09 -35.6,-16.68 l -1.9,-1.2 -6.2,-129.85" /><path
             id="path234"
             style="fill:#dc333e;fill-opacity:1;fill-rule:nonzero;stroke:none"
             d="m 12193.7,2732.02 c 1.9,1.76 10.6,11.61 11.2,12.34 0.9,1.14 1.7,2.29 2.5,3.52 0.9,1.29 1.8,2.6 2.6,3.92 5.8,9.59 9.7,20.17 11.6,31.19 0.7,3.72 1.1,7.51 1.3,11.29 l 2.3,47.07 4.1,84.62 c 28.8,10.17 62,3.72 62,3.72 l 0,-0.03 c 50.2,-7.44 88.2,-38.34 105.3,-54.84 l 2,-1.9 -31.7,-89.93 -14.3,-40.83 c -5.6,-15.74 -15.3,-29.57 -28.2,-40.07 -24.6,-20.07 -57.2,-25.73 -87.2,-15.21 -21.4,7.57 -38.1,22.46 -48.5,40.8 1.7,1.41 3.4,2.85 5,4.34" /><path
             id="path236"
             style="fill:#2c3335;fill-opacity:1;fill-rule:nonzero;stroke:none"
             d="m 12427.3,2876.2 c 1.5,3.14 2.8,6.33 4.2,9.5 0,0.14 0.1,0.29 0.2,0.44 1.1,1.99 2.1,4.01 3,6.06 0.2,0.27 0.3,0.56 0.4,0.8 l 1.3,-1.09 46.1,130.75 c 17.3,49.19 -8.6,103.3 -57.8,120.62 -13.6,4.81 -27.8,6.39 -41.6,4.92 66.3,47.02 146,81.46 233.8,98.75 l -22,-264.24 147.1,0 0,-184.21 -344,0 24.5,69.7 c 1.8,2.58 3.4,5.21 4.8,8" /><path
             id="path238"
             style="fill:#3a9ea8;fill-opacity:1;fill-rule:nonzero;stroke:none"
             d="m 9384.75,1491.91 c 0,-528.762 428.7,-957.457 957.45,-957.457 528.9,0 957.6,428.695 957.6,957.457 0,528.89 -428.7,957.53 -957.6,957.53 -528.75,0 -957.45,-428.64 -957.45,-957.53" /><path
             id="path240"
             style="fill:#ffffff;fill-opacity:1;fill-rule:nonzero;stroke:none"
             d="m 10616.2,1948.96 c 0,130.66 -106.2,237 -236.8,237 -130.6,0 -236.7,-106.34 -236.7,-237 0,-130.53 106.1,-236.75 236.7,-236.75 130.6,0 236.8,106.2 236.8,236.75" /><path
             id="path242"
             style="fill:#ffffff;fill-opacity:1;fill-rule:nonzero;stroke:none"
             d="m 10404.2,1085.02 -30.7,0.09 c -37.7,0 -68.4,30.63 -68.4,68.38 0,37.61 30.7,68.27 68.4,68.27 l 58.1,0 c -14.4,-36.17 -35.5,-98.92 -27.4,-136.74 z m -519.84,-138.227 0,543.307 c 18.78,222.85 273.44,222.14 284.54,222.11 l 396.1,0 -121.8,-458.01 -69.7,0 c -55.6,0 -100.8,-45.16 -100.8,-100.71 0,-55.57 45.2,-100.79 100.8,-100.79 l 282.6,0 0.2,-170.563 -581.3,-0.414 0.2,556.437 -37,-47.84 0,-426.527 -0.2,-16.207 c 0,-43.176 -34.5,-77.613 -76.85,-77.613 -42.29,0 -76.76,34.437 -76.76,76.82 l -0.03,0 z m 860.34,739.097 c 147,-56.39 145.7,-159.59 146.2,-164.66 l 0.8,-366.12 c 0,-1 0.3,-33.98 -19.7,-54.47 -10.9,-11.16 -26.4,-16.88 -46.2,-16.88 l -13.9,0.09 -67.2,602.04" /><path
             id="path244"
             style="fill:#dc333e;fill-opacity:1;fill-rule:nonzero;stroke:none"
             d="m 10779.5,1085.11 -60.6,600.78 c -22.6,7.8 -33.3,19.14 -120.5,25.5 0,0 -171.7,-608.31 -161,-624.75 0.6,-0.74 1,-1.53 4.1,-1.53 l 338,0 0,0" /><path
             id="path246"
             style="fill:#5fa6d6;fill-opacity:1;fill-rule:nonzero;stroke:none"
             d="m 6970.67,5441.56 0.17,46.9 c 2.76,50.09 5.57,103.93 8.36,160.59 L 6537.66,4801.8 c -57.57,-110.45 -163.23,-187.86 -285.89,-209.49 l -1072.89,-20.34 -234.05,-42.12 -365.36,-97.25 C 5196.99,3803.04 6013.79,3369.68 6927.79,3234.64 l 8.88,1064.27 34,1142.65" /><path
             id="path248"
             style="fill:#5fa6d6;fill-opacity:1;fill-rule:nonzero;stroke:none"
             d="m 11684.1,7335 c 0,2289.31 -1855.87,4145.2 -4145.19,4145.2 -2289.34,0 -4145.2,-1855.89 -4145.2,-4145.2 0,-517.8 94.97,-1013.42 268.4,-1470.43 -11.79,210.01 141.95,395.46 353.63,420.17 24.53,2.87 48.74,3.34 72.51,1.82 109.66,-7.04 209.25,-58.86 278.19,-139.08 31.95,-125.13 69.32,-248.09 111.91,-368.59 l 78.38,-671.27 205.44,36.2 1155.92,203.68 597.5,1146.55 c -8.79,36.2 -13.57,73.98 -13.57,112.9 0,263.42 213.53,476.92 476.91,476.92 2.58,0 5.13,-0.18 7.71,-0.21 -0.06,0.79 -0.09,1.61 -0.17,2.41 l 401.7,0 0,0.14 c 114.6,5.69 222.85,35.44 319.81,84.3 0.59,-0.82 1.23,-1.61 1.84,-2.46 l -47.16,-27.85 -190.96,-783.27 262.04,-65.48 -174.66,-327.52 732.86,-1449.64 136.17,-200.2 172.96,-343.63 0.71,18.14 76.12,217.34 888.76,1757.99 -174.7,327.52 262.04,65.48 -190.96,783.27 -47.13,27.85 c 0.59,0.85 1.2,1.64 1.85,2.46 96.93,-48.86 205.17,-78.61 319.78,-84.3 l 0,-0.14 453.76,0 c 0,0 233.5,4.01 306.8,-69.68 l -301.2,-1116.82 -0.6,0.38 c 0,-0.91 0,-1.82 0,-2.73 l -0.4,-1.31 0.4,-0.97 c 1.2,-377.17 10.9,-798.87 36.1,-1236.33 l -9.1,40.19 7.8,-515.73 c 889.3,760.3 1453,1890.25 1453,3151.93" /><path
             id="path250"
             style="fill:#fbfcfc;fill-opacity:1;fill-rule:nonzero;stroke:none"
             d="m 10232.4,4658.61 c -25.2,437.46 -34.9,859.16 -36.1,1236.33 l -0.4,0.97 0.4,1.31 c 0,0.91 0,1.82 0,2.73 l 0.6,-0.38 301.2,1116.82 c -73.3,73.69 -306.8,69.68 -306.8,69.68 l -453.76,0 0,0.14 c -114.61,5.69 -222.85,35.44 -319.78,84.3 -0.65,-0.82 -1.26,-1.61 -1.85,-2.46 l 47.13,-27.85 190.96,-783.27 -262.04,-65.48 174.7,-327.52 -888.76,-1757.99 -76.12,-217.34 -0.71,-18.14 52.12,-103.53 -68.15,-543.92 c 616.11,160.19 1176.48,458.6 1646.06,860.06 l -7.8,515.73 9.1,-40.19" /><path
             id="path252"
             style="fill:#fbfcfc;fill-opacity:1;fill-rule:nonzero;stroke:none"
             d="m 3664.13,5840.16 145.64,-1247.47 c 12.81,-109.59 70.23,-209.07 158.72,-274.99 69.67,-51.88 170.56,32.92 256.21,32.92 23.15,0 46.43,1.99 69.55,6.06 l 285.22,75.92 c -397.39,405.16 -712.27,891.54 -917.36,1431.97 0.44,-8.09 1.05,-16.24 2.02,-24.41" /><path
             id="path254"
             style="fill:#fbfcfc;fill-opacity:1;fill-rule:nonzero;stroke:none"
             d="m 8575.55,3320.49 25.52,649.97 -172.96,343.63 -136.17,200.2 -732.86,1449.64 174.66,327.52 -262.04,65.48 190.96,783.27 47.16,27.85 c -0.61,0.85 -1.25,1.64 -1.84,2.46 -96.96,-48.86 -205.21,-78.61 -319.81,-84.3 l 0,-0.14 -401.7,0 c 0.08,-0.8 0.11,-1.62 0.17,-2.41 -2.58,0.03 -5.13,0.21 -7.71,0.21 -263.38,0 -476.91,-213.5 -476.91,-476.92 0,-38.92 4.78,-76.7 13.57,-112.9 l -597.5,-1146.55 -1155.92,-203.68 -205.44,-36.2 -78.38,671.27 c -42.59,120.5 -79.96,243.46 -111.91,368.59 -68.94,80.22 -168.53,132.04 -278.19,139.08 -23.77,1.52 -47.98,1.05 -72.51,-1.82 -211.68,-24.71 -365.42,-210.16 -353.63,-420.17 205.09,-540.43 519.97,-1026.81 917.36,-1431.97 l 365.36,97.25 234.05,42.12 1072.89,20.34 c 122.66,21.63 228.32,99.04 285.89,209.49 l 441.54,847.25 c -2.79,-56.66 -5.6,-110.5 -8.36,-160.59 l -0.17,-46.9 -34,-1142.65 -8.88,-1064.27 c 199.46,-29.49 403.49,-44.82 611.12,-44.82 357.95,0 705.31,45.38 1036.64,130.67" /><path
             id="path256"
             style="fill:#fbfcfc;fill-opacity:1;fill-rule:nonzero;stroke:none"
             d="m 8585.04,3323.01 68.15,543.92 -52.12,103.53 -25.52,-649.97 c 3.16,0.82 6.3,1.7 9.49,2.52" /><path
             id="path258"
             style="fill:#100f0d;fill-opacity:1;fill-rule:nonzero;stroke:none"
             d="m 9552.3,7128.33 c -186.33,256.12 -505.88,385.99 -949.73,385.99 -502.86,0 -856.98,-133.68 -1052.66,-397.33 -0.09,-0.15 -0.21,-0.29 -0.33,-0.47 38.14,10.52 113.94,35.2 206.97,84.91 190.69,148.61 474.16,223.76 846.02,223.76 324.27,0 575.75,-72.19 750.53,-214.99 61.7,-30.75 153.38,-68.27 203.8,-88.38 -1.52,2.17 -3.05,4.37 -4.6,6.51" /><path
             id="path260"
             style="fill:#f14f22;fill-opacity:1;fill-rule:nonzero;stroke:none"
             d="m 8553.59,3803.18 c 0.12,0 0.21,0 0.36,-0.03 l 0,0.03 c -0.15,0 -0.24,0 -0.36,0" /><path
             id="path262"
             style="fill:#fbfcfc;fill-opacity:1;fill-rule:nonzero;stroke:none"
             d="m 4460.32,5933.13 c -9.61,82.33 -43.61,155.87 -93.88,214.35 31.95,-125.13 69.32,-248.09 111.91,-368.59 l -18.03,154.24" /><path
             id="path264"
             style="fill:#e8e8e7;fill-opacity:1;fill-rule:nonzero;stroke:none"
             d="m 8601.78,3988.6 0,11.22 -36.46,0 0,-16.67 18.73,-45.2 17.73,50.65" /><path
             id="path266"
             style="fill:#e8e8e7;fill-opacity:1;fill-rule:nonzero;stroke:none"
             d="m 8584.05,3937.95 -18.73,45.2 0,-27.52 c 2.34,0 4.69,-0.06 7.06,-0.06 9.82,0 19.61,0.11 29.4,0.2 l 0,32.83 -17.73,-50.65" /><path
             id="path268"
             style="fill:#1f4468;fill-opacity:1;fill-rule:nonzero;stroke:none"
             d="m 10196.3,5894.94 c 0,0.76 0,1.52 0,2.28 l -0.4,-1.31 0.4,-0.97" /><path
             id="path270"
             style="fill:#61cad0;fill-opacity:1;fill-rule:nonzero;stroke:none"
             d="m 8553.95,3803.15 0,0.03 c -0.15,0 -0.24,0 -0.36,0 0.12,0 0.21,0 0.36,-0.03" /><path
             id="path272"
             style="fill:#d5a889;fill-opacity:1;fill-rule:nonzero;stroke:none"
             d="m 9075.12,7630.04 0.41,-0.32 0,160.98 -983.73,0 0,-232.59 -3.31,0 c -41.33,-91.71 -99.51,-174.13 -170.44,-243.63 767.94,-73.54 1157.07,315.56 1157.07,315.56" /><path
             id="path274"
             style="fill:#f3c199;fill-opacity:1;fill-rule:nonzero;stroke:none"
             d="m 9075.53,7479.77 0,149.95 -0.41,0.32 c 0,0 -389.13,-389.1 -1157.07,-315.56 -58.89,-57.71 -126.51,-106.48 -200.87,-143.97 96.2,-137.21 224.76,-250.02 374.62,-327.34 l 0,-216.31 1.24,0 0,-14.75 935,0 0,14.75 47.49,0 0,237 c 134.59,76.82 250.28,182.96 338.48,309.7 -140.26,67.38 -257.85,174.19 -338.48,306.21" /><path
             id="path276"
             style="fill:#d3d5dd;fill-opacity:1;fill-rule:nonzero;stroke:none"
             d="m 9259.36,7006.34 c -184.54,-172.11 -431.83,-277.69 -704.1,-277.69 -249.93,0 -478.49,89.08 -657.14,236.77 l 685.52,-3028.23 675.72,3069.15" /><path
             id="path278"
             style="fill:#3f557a;fill-opacity:1;fill-rule:nonzero;stroke:none"
             d="m 8759.32,4434.65 154.82,378.93 -184.16,1722.03 -145.52,42.44 0,1.85 -3.17,-0.94 -3.13,0.94 0,-1.85 -145.53,-42.44 -196.88,-1836.11 234.28,-444.11 112.05,-313.75 36.67,65.22 91.68,258.69 48.89,169.1" /><path
             id="path280"
             style="fill:#3f557a;fill-opacity:1;fill-rule:nonzero;stroke:none"
             d="m 8803.99,6818.4 -227.74,31.21 -227.8,-31.21 -44.26,-126.53 107.54,-170.83 164.52,-6.33 164.49,6.33 107.54,170.83 -44.29,126.53" /><path
             id="path282"
             style="fill:#bdccc2;fill-opacity:1;fill-rule:nonzero;stroke:none"
             d="m 7835.45,7242.29 730.43,-392.68 -518.36,-518.38 -384.86,808.97 172.79,102.09" /><path
             id="path284"
             style="fill:#bdccc2;fill-opacity:1;fill-rule:nonzero;stroke:none"
             d="m 9298.05,7242.29 -730.45,-392.68 518.36,-518.38 375.42,800.65 -163.33,110.41" /><path
             id="path286"
             style="fill:#f3c199;fill-opacity:1;fill-rule:nonzero;stroke:none"
             d="m 9835.17,9344.48 c 0,886.52 -532.98,1165.62 -1225.77,1165.62 -8.53,0 -17,-0.1 -25.5,-0.2 l 0,-3041.8 c 691.35,2.81 1251.27,991.11 1251.27,1876.38" /><path
             id="path288"
             style="fill:#e2b28e;fill-opacity:1;fill-rule:nonzero;stroke:none"
             d="m 8552.3,10509.1 c -667.55,-21.7 -1225.51,-302.6 -1225.51,-1164.62 0,-874.28 546.24,-1855.98 1225.51,-1875.5 9.65,-0.29 19.14,-0.97 28.67,-0.97 0.99,0 1.96,0.09 2.93,0.09 l 0,3041.8 c -10.52,-0.2 -21.04,-0.5 -31.6,-0.8" /><path
             id="path290"
             style="fill:#352118;fill-opacity:1;fill-rule:nonzero;stroke:none"
             d="m 9918.68,9456.6 c -29.98,396.45 -191.61,683.2 -191.61,683.2 108.1,482.4 -342.81,616.8 -818.26,628.4 -439.52,10.6 -899.93,-83.5 -959.4,-105.2 -64.43,-23.5 -155.08,-31.6 -226.86,-34.1 -65.89,-2.2 -116.19,0.3 -116.19,0.3 2.69,-10.9 13.28,-36.3 23.65,-59.6 10.76,-24.7 21.31,-47.2 21.31,-47.2 -12.63,-1.3 -35.64,5.1 -63.28,15.3 -96.26,35.2 -251.75,119.6 -251.75,119.6 -16.79,-129.4 14.16,-244.8 49.3,-327.7 35.14,-83 74.48,-133.5 74.48,-133.5 -28.23,-5.7 -106.93,28.1 -106.93,28.1 22.57,-106.9 45.11,-157.6 45.11,-157.6 -169.24,-123.47 -208.46,-480.04 -211.56,-758.96 l 290.09,-338.71 100.3,243.13 c 2.14,-0.33 4.16,-0.38 6.36,-0.68 70.81,255.97 129.79,641.53 129.79,641.53 756.8,-485.86 1453.16,-97.67 1573.51,-23.1 22.8,25.03 34.91,40.07 34.91,40.07 42.88,-486.21 371.66,-815.04 371.66,-815.04 -27.47,206.46 209.39,368.37 227.07,380.1 0.7,0.47 1.64,1.14 1.64,1.14 -0.94,7.06 -2.17,13.54 -3.34,20.52" /><path
             id="path292"
             style="fill:#f3c199;fill-opacity:1;fill-rule:nonzero;stroke:none"
             d="m 9670.91,9137.7 c -47.33,-180.88 -13.68,-346.57 74.98,-369.9 88.9,-23.48 199.2,104.22 246.68,285.16 47.33,180.82 13.63,346.48 -75.03,369.9 -88.79,23.39 -199.14,-104.23 -246.63,-285.16" /><path
             id="path294"
             style="fill:#e2b28e;fill-opacity:1;fill-rule:nonzero;stroke:none"
             d="m 7457.64,9132.95 c 49.21,-176.77 23.3,-338.4 -57.31,-360.82 -80.6,-22.48 -185.74,102.65 -234.83,279.48 -49.04,176.86 -23.34,338.39 57.24,360.9 80.75,22.37 186.01,-102.7 234.9,-279.56" /><path
             id="path296"
             style="fill:#e8e8e7;fill-opacity:1;fill-rule:nonzero;stroke:none"
             d="m 8583.64,3937.19 -685.52,3028.23 -62.67,276.87 -125.63,-74.24 -47.16,-27.85 -190.96,-783.27 262.04,-65.48 -174.66,-327.52 1024.56,-2026.74" /><path
             id="path298"
             style="fill:#e8e8e7;fill-opacity:1;fill-rule:nonzero;stroke:none"
             d="m 9675.08,6356.93 -190.99,783.27 -2.08,1.23 -175.19,93.77 -47.46,-228.86 -675.72,-3069.15 1004.12,2026.74 -174.72,327.52 262.04,65.48" /><path
             id="path300"
             style="fill:#295e6c;fill-opacity:1;fill-rule:nonzero;stroke:none"
             d="m 7024.63,4863.32 -3157.38,-637.45 -807.42,3999.3 3157.38,637.45 807.42,-3999.3" /><path
             id="path302"
             style="fill:#ffffff;fill-opacity:1;fill-rule:nonzero;stroke:none"
             d="M 6815.96,5040.3 3990.95,4469.91 3268.49,8048.25 6093.52,8618.61 6815.96,5040.3" /><path
             id="path304"
             style="fill:#2c4452;fill-opacity:1;fill-rule:nonzero;stroke:none"
             d="m 3946.57,7002.15 -210.51,-42.47 -42.5,210.42 210.54,42.5 42.47,-210.45" /><path
             id="path306"
             style="fill:#2c4452;fill-opacity:1;fill-rule:nonzero;stroke:none"
             d="m 5904.52,7397.46 -1747.88,-352.87 -42.5,210.42 1747.88,352.9 42.5,-210.45" /><path
             id="path308"
             style="fill:#2c4452;fill-opacity:1;fill-rule:nonzero;stroke:none"
             d="m 4027.23,6602.32 -210.45,-42.53 -42.5,210.48 210.45,42.5 42.5,-210.45" /><path
             id="path310"
             style="fill:#2c4452;fill-opacity:1;fill-rule:nonzero;stroke:none"
             d="m 5764.89,6953.14 -1527.53,-308.41 -42.47,210.45 1527.52,308.41 42.48,-210.45" /><path
             id="path312"
             style="fill:#2c4452;fill-opacity:1;fill-rule:nonzero;stroke:none"
             d="m 4108.01,6202.52 -210.51,-42.53 -42.47,210.46 210.51,42.52 42.47,-210.45" /><path
             id="path314"
             style="fill:#2c4452;fill-opacity:1;fill-rule:nonzero;stroke:none"
             d="m 5700.4,6523.97 -1382.32,-279.06 -42.5,210.45 1382.32,279.07 42.5,-210.46" /><path
             id="path316"
             style="fill:#2c4452;fill-opacity:1;fill-rule:nonzero;stroke:none"
             d="m 4188.73,5802.67 -210.51,-42.5 -42.5,210.45 210.51,42.53 42.5,-210.48" /><path
             id="path318"
             style="fill:#2c4452;fill-opacity:1;fill-rule:nonzero;stroke:none"
             d="m 6191.45,6206.98 -1792.65,-361.9 -42.5,210.45 1792.67,361.9 42.48,-210.45" /><path
             id="path320"
             style="fill:#2c4452;fill-opacity:1;fill-rule:nonzero;stroke:none"
             d="m 4269.45,5402.84 -210.5,-42.5 -42.5,210.45 210.53,42.5 42.47,-210.45" /><path
             id="path322"
             style="fill:#2c4452;fill-opacity:1;fill-rule:nonzero;stroke:none"
             d="m 6272.16,5807.15 -1792.64,-361.9 -42.47,210.45 1792.61,361.9 42.5,-210.45" /><path
             id="path324"
             style="fill:#e2b28e;fill-opacity:1;fill-rule:nonzero;stroke:none"
             d="m 3170.92,6367.13 c 7.79,0 15.71,0.56 23.68,1.7 l 460.68,65.81 c 90.86,12.95 154,97.13 141.01,188.02 -12.95,90.84 -96.99,153.94 -188,140.99 l -460.67,-65.77 c -90.87,-12.99 -154,-97.17 -141.02,-188.03 11.85,-82.89 82.92,-142.72 164.32,-142.72" /><path
             id="path326"
             style="fill:#e2b28e;fill-opacity:1;fill-rule:nonzero;stroke:none"
             d="m 3147.29,6006.73 451.27,56.39 c 91.07,11.4 155.67,94.44 144.3,185.54 -11.38,91.07 -94.41,155.55 -185.51,144.3 l -451.3,-56.43 c -91.07,-11.37 -155.66,-94.44 -144.29,-185.51 10.52,-84.09 82.1,-145.61 164.69,-145.61 6.89,0 13.84,0.44 20.84,1.32" /><path
             id="path328"
             style="fill:#e2b28e;fill-opacity:1;fill-rule:nonzero;stroke:none"
             d="m 3694.85,5734.73 c 90.22,16.91 149.63,103.75 132.72,193.94 -16.92,90.25 -103.77,149.63 -193.98,132.72 l -451.27,-84.59 c -90.22,-16.91 -149.63,-103.76 -132.72,-193.98 14.98,-79.84 84.74,-135.59 163.15,-135.59 10.16,0 20.48,0.94 30.83,2.9 l 451.27,84.6" /><path
             id="path330"
             style="fill:#e2b28e;fill-opacity:1;fill-rule:nonzero;stroke:none"
             d="m 3912.36,5602.97 c -13.48,81.1 -90.07,135.92 -171.26,122.37 l -404.17,-67.35 c -81.07,-13.54 -135.85,-90.22 -122.34,-171.32 12.14,-72.78 75.21,-124.4 146.64,-124.4 8.12,0 16.36,0.68 24.65,2.09 l 404.17,67.35 c 81.07,13.49 135.85,90.19 122.31,171.26" /><path
             id="path332"
             style="fill:#fbfcfc;fill-opacity:1;fill-rule:nonzero;stroke:none"
             d="m 10702.3,6787.98 c 112.9,-239.18 43.4,-509.1 -155.3,-602.96 -198.7,-93.82 -451.3,24.01 -564.25,263.19 -112.93,239.17 -43.44,509.12 155.25,602.95 198.7,93.82 451.3,-24.01 564.3,-263.18" /><path
             id="path334"
             style="fill:#2f2d32;fill-opacity:1;fill-rule:nonzero;stroke:none"
             d="m 8563.73,4681.36 c 0,-30.54 -24.73,-55.28 -55.28,-55.28 -30.51,0 -55.25,24.74 -55.25,55.28 0,30.51 24.74,55.28 55.25,55.28 30.55,0 55.28,-24.77 55.28,-55.28" /><path
             id="path336"
             style="fill:#2f2d32;fill-opacity:1;fill-rule:nonzero;stroke:none"
             d="m 8731.95,4664.74 c 0,-30.51 -24.74,-55.25 -55.28,-55.25 -30.51,0 -55.25,24.74 -55.25,55.25 0,30.54 24.74,55.31 55.25,55.31 30.54,0 55.28,-24.77 55.28,-55.31" /><path
             id="path338"
             style="fill:#e8e8e7;fill-opacity:1;fill-rule:nonzero;stroke:none"
             d="m 10210.4,4591.2 c -237.64,165.75 -726.52,249.23 -1168.81,272.82 l -215.32,-439.42 1399.33,-65.89 -15.2,232.49" /><path
             id="path340"
             style="fill:#100f0d;fill-opacity:1;fill-rule:nonzero;stroke:none"
             d="m 7382.28,6538.48 c 3.25,-168.44 39.74,-290.82 41.3,-295.95 l 85.32,25.8 c -1.38,4.57 -135.03,462.52 112.96,796.07 37.99,51.09 82.95,96.76 134.69,137.03 -93.03,-49.71 -168.83,-74.39 -206.97,-84.91 -113.81,-153.59 -171.67,-353.46 -167.3,-578.04" /><path
             id="path342"
             style="fill:#100f0d;fill-opacity:1;fill-rule:nonzero;stroke:none"
             d="m 9573.96,5968.33 42.41,-13.69 -42.41,13.72 0,-0.03" /><path
             id="path344"
             style="fill:#100f0d;fill-opacity:1;fill-rule:nonzero;stroke:none"
             d="m 9556.9,7121.82 c -50.42,20.11 -142.1,57.63 -203.8,88.38 48.16,-39.34 90.51,-84.01 126.94,-134.01 160.39,-220.27 177.89,-508.05 164.32,-710.7 -14.95,-222.94 -69.76,-395.11 -70.4,-397.13 l 42.41,-13.72 42.38,-13.71 c 2.38,7.35 58.42,182.66 74.36,416.24 21.11,309.08 -39.86,573.22 -176.21,764.65" /><path
             id="path346"
             style="fill:#e8e8e7;fill-opacity:1;fill-rule:nonzero;stroke:none"
             d="m 9895.91,5954.88 c 0,-149.99 -121.59,-271.57 -271.54,-271.57 -149.95,0 -271.53,121.58 -271.53,271.57 0,149.92 121.58,271.5 271.53,271.5 149.95,0 271.54,-121.58 271.54,-271.5" /><path
             id="path348"
             style="fill:#100f0d;fill-opacity:1;fill-rule:nonzero;stroke:none"
             d="m 9624.37,6206.92 c -138.99,0 -252.04,-113.08 -252.04,-252.04 0,-138.99 113.05,-252.04 252.04,-252.04 138.99,0 252.04,113.05 252.04,252.04 0,138.96 -113.05,252.04 -252.04,252.04 z m 0,-543.1 c -160.48,0 -291.03,130.55 -291.03,291.06 0,160.44 130.55,291.02 291.03,291.02 160.48,0 291.06,-130.58 291.06,-291.02 0,-160.51 -130.58,-291.06 -291.06,-291.06" /><path
             id="path350"
             style="fill:#b2b1b0;fill-opacity:1;fill-rule:nonzero;stroke:none"
             d="m 9820.72,5954.88 c 0,-108.45 -87.93,-196.36 -196.35,-196.36 -108.45,0 -196.35,87.91 -196.35,196.36 0,108.42 87.9,196.32 196.35,196.32 108.42,0 196.35,-87.9 196.35,-196.32" /><path
             id="path352"
             style="fill:#b2b1b0;fill-opacity:1;fill-rule:nonzero;stroke:none"
             d="m 7482.17,4486.85 c -216.46,11.49 -242.13,150.57 -243.13,156.46 l -145.41,869.56 66.03,11.05 145.41,-869.56 c 0.65,-3.28 20.32,-92.12 180.64,-100.62 l -3.54,-66.89" /><path
             id="path354"
             style="fill:#b2b1b0;fill-opacity:1;fill-rule:nonzero;stroke:none"
             d="m 7983.47,4612.98 c 200.96,81.27 180.03,221.11 179.03,227.04 l -145.38,869.59 -66.07,-11.06 145.41,-869.59 c 0.44,-3.28 10.76,-93.7 -138.08,-153.91 l 25.09,-62.07" /><path
             id="path356"
             style="fill:#262323;fill-opacity:1;fill-rule:nonzero;stroke:none"
             d="m 7538.95,4593.57 c 63.57,-12.66 108.5,-56.25 100.32,-97.4 -8.17,-41.12 -66.36,-64.28 -129.96,-51.62 -63.54,12.64 -108.51,56.25 -100.36,97.38 8.21,41.15 66.39,64.27 130,51.64" /><path
             id="path358"
             style="fill:#262323;fill-opacity:1;fill-rule:nonzero;stroke:none"
             d="m 7894.66,4653.04 c -56.04,-32.65 -84.33,-88.49 -63.22,-124.74 21.13,-36.23 83.68,-39.16 139.69,-6.54 55.98,32.62 84.3,88.49 63.19,124.72 -21.1,36.25 -83.68,39.19 -139.66,6.56" /><path
             id="path360"
             style="fill:#262323;fill-opacity:1;fill-rule:nonzero;stroke:none"
             d="m 7075.43,5488.69 c -1.29,7.71 -31.28,190.84 -6.95,386.26 34.03,273.44 158.19,435.73 359.08,469.32 476.27,79.64 605.24,-657.94 610.49,-689.36 L 7939,5638.32 c -1.11,6.68 -117.24,670.04 -494.87,606.88 -154.74,-25.85 -247.59,-154.61 -276,-382.62 -22.5,-181.08 6.04,-355.6 6.33,-357.33 l -99.03,-16.56" /><path
             id="path362"
             style="fill:#dc333e;fill-opacity:1;fill-rule:nonzero;stroke:none"
             d="m 4953.01,7747.2 -145.18,-27.23 27.2,-145.09 -126.3,-23.68 -27.2,145.11 -145,-27.17 -23.68,126.24 145.03,27.2 -27.17,145 126.27,23.69 27.17,-145.03 145.21,27.23 23.65,-126.27 z m -278.83,337.6 c -173.2,-32.45 -287.25,-199.17 -254.8,-372.34 32.44,-173.16 199.16,-287.24 372.33,-254.8 173.17,32.48 287.25,199.17 254.8,372.37 -32.45,173.17 -199.17,287.24 -372.33,254.77" /><path
             id="path364"
             style="fill:#2f4b53;fill-opacity:1;fill-rule:nonzero;stroke:none"
             d="M 5197.08,8766.27 4621.56,8632 4038.98,8532.43 c 0,0 66.42,-184.3 7.04,-379.93 l 623.35,125.87 45.2,9.11 633.49,127.91 c -130.67,157.23 -150.98,350.88 -150.98,350.88" /><path
             id="path366"
             style="fill:#2c4452;fill-opacity:1;fill-rule:nonzero;stroke:none"
             d="m 5354.77,8429.73 c 7.53,-37.35 -16.59,-73.72 -53.93,-81.28 L 4104,8106.84 c -37.32,-7.56 -73.78,16.62 -81.31,53.93 l 0,0 c -7.56,37.34 16.67,73.75 54.02,81.28 l 1196.84,241.64 c 37.34,7.53 73.69,-16.65 81.22,-53.96 l 0,0" /><path
             id="path368"
             style="fill:#2c4452;fill-opacity:1;fill-rule:nonzero;stroke:none"
             d="m 5220.23,8764.28 c 6.81,-33.71 -15,-66.57 -48.71,-73.34 l -1081.18,-218.3 c -33.71,-6.8 -66.6,15 -73.43,48.71 l 0,0 c -6.8,33.77 15.07,66.62 48.8,73.42 l 1081.13,218.31 c 33.74,6.77 66.57,-15.01 73.39,-48.8 l 0,0" /><path
             id="path370"
             style="fill:#2c4452;fill-opacity:1;fill-rule:nonzero;stroke:none"
             d="m 4601.43,8707.74 c -74.69,-15.07 -147.47,33.26 -162.53,107.86 -15.07,74.65 33.27,147.46 107.92,162.5 74.6,15.1 147.38,-33.24 162.47,-107.92 15.07,-74.6 -33.27,-147.38 -107.86,-162.44 z m 343.46,92.68 c -38.81,192.22 -226.13,316.61 -418.35,277.78 -192.19,-38.78 -316.56,-226.14 -277.78,-418.32 l 20.72,-102.62 696.13,140.54 -20.72,102.62" /><path
             id="path372"
             style="fill:#e2b28e;fill-opacity:1;fill-rule:nonzero;stroke:none"
             d="m 7998.24,5482.18 c 0,0 49.63,-55.69 185.39,-92.73 l -41.12,-744.73 c 0,0 -123.4,24.07 -242.72,-29.43 l 98.45,866.89" /><path
             id="path374"
             style="fill:#ffffff;fill-opacity:1;fill-rule:nonzero;stroke:none"
             d="m 8457.19,5491.24 -287.89,13.98 c -39.86,1.94 -73.72,-28.78 -75.68,-68.64 l -18.38,-378.44 -18.38,-378.39 c -1.96,-39.84 28.79,-73.75 68.65,-75.66 l 287.89,-14.01 c 39.8,-1.96 73.72,28.82 75.62,68.65 l 18.41,378.4 18.37,378.46 c 1.94,39.83 -28.81,73.69 -68.61,75.65" /><path
             id="path376"
             style="fill:#e2b28e;fill-opacity:1;fill-rule:nonzero;stroke:none"
             d="m 7048.87,4743.26 c 2.96,61.41 54.05,108.45 114.54,109.6 -0.08,0.67 -0.32,1.14 -0.43,1.6 l -108.45,5.25 c -64.08,3.11 -113.96,57.98 -110.83,122.17 3.08,63.92 58.1,113.96 122.14,110.82 l -116.48,5.69 c -64.04,3.08 -113.96,57.95 -110.85,122.08 3.1,63.92 58.12,113.96 122.16,110.85 l -465.92,22.63 c -64.02,3.1 -113.93,57.95 -110.82,122.14 3.11,63.93 58.12,113.9 122.13,110.79 l 74.4,-3.6 624.49,-30.37 84.18,-4.1 c 14.21,-0.68 27.43,11.69 32.21,25.17 4.78,13.43 0.32,30.05 -11.16,38.61 -107.61,91.15 -218.31,91.09 -212.3,214.61 1.37,28.69 17.79,54.58 43.2,67.94 25.44,13.1 56.01,12.08 80.34,-2.99 l 767.71,-403.11 c 17.94,-11.13 28.43,-31.24 27.4,-52.4 -4.95,-101.92 -22.42,-461.33 -33.06,-680.43 -4.72,-96.48 -86.61,-170.91 -183.19,-166.21 -312.1,15.15 -640.65,31.13 -640.65,31.13 -64.01,3.1 -113.9,57.97 -110.76,122.13" /><path
             id="path378"
             style="fill:#fbfcfc;fill-opacity:1;fill-rule:nonzero;stroke:none"
             d="m 10927.4,4403.9 c -7.1,0 -14.1,0.15 -21.1,0.44 l -2713.73,113.08 42.06,1009.7 2062.87,-162.59 -443.98,1051.49 867.18,330.39 655.6,-1605.37 c 82.6,-159.98 73.8,-351.85 -23,-503.62 -93,-145.82 -253.9,-233.52 -425.9,-233.52" /></g></g></g></g></svg>